<svg width="20" height="20" viewBox="0 0 20 20" fill="none" xmlns="http://www.w3.org/2000/svg">
<g id="Interface essential/Bell">
<path id="Icon" fill-rule="evenodd" clip-rule="evenodd" d="M17.5888 12.9001C17.2186 12.5834 17.0054 12.1206 17.0055 11.6334V7.61675C17.0055 4.32508 14.0221 1.66675 10.3388 1.66675C6.65547 1.66675 3.67214 4.32508 3.67214 7.61675V11.6334C3.67217 12.1206 3.45904 12.5834 3.08881 12.9001C1.83047 14.0251 2.72214 15.9417 4.50547 15.9417H7.67214C8.07617 17.0671 9.14314 17.8177 10.3388 17.8177C11.5345 17.8177 12.6014 17.0671 13.0055 15.9417H16.1721C17.9555 15.9417 18.8471 14.0251 17.5888 12.9001ZM10.3388 16.5667C9.8428 16.5649 9.3754 16.3343 9.07214 15.9417H11.5721C11.2785 16.3281 10.824 16.5584 10.3388 16.5667ZM16.1805 14.6917C16.4834 14.7192 16.7719 14.5567 16.9055 14.2834C16.9703 14.1188 16.9113 13.9312 16.7638 13.8334C16.1359 13.2733 15.7729 12.4747 15.7638 11.6334V7.61675C15.7638 5.02508 13.3305 2.91675 10.3471 2.91675C7.36381 2.91675 4.93047 5.02508 4.93047 7.61675V11.6334C4.92133 12.4747 4.55834 13.2733 3.93047 13.8334C3.77991 13.9287 3.7172 14.1168 3.78047 14.2834C3.91405 14.5567 4.20251 14.7192 4.50547 14.6917H16.1805Z" fill="#959BA3"/>
</g>
</svg>
