<svg width="20" height="20" viewBox="0 0 20 20" fill="none" xmlns="http://www.w3.org/2000/svg">
<g id="Interface essential/emai-1">
<g id="Icon">
<path fill-rule="evenodd" clip-rule="evenodd" d="M11.075 2.11918L16.7833 6.12751C17.6708 6.75123 18.1993 7.76778 18.2 8.85251V14.7942C18.1978 15.7379 17.8208 16.6421 17.1519 17.3079C16.483 17.9736 15.5771 18.3464 14.6333 18.3442H5.23334C4.28961 18.3464 3.38365 17.9736 2.71477 17.3079C2.04589 16.6421 1.66888 15.7379 1.66667 14.7942V8.85251C1.66738 7.76778 2.19586 6.75123 3.08334 6.12751L8.79167 2.11918C9.43326 1.51594 10.4334 1.51594 11.075 2.11918ZM16.268 16.424C16.7025 15.9926 16.9478 15.4064 16.95 14.7942V8.85251C16.9383 8.18784 16.6102 7.56865 16.0667 7.18584L10.3583 3.17751L10.2667 3.11084C10.1789 3.02126 10.0588 2.97078 9.93334 2.97078C9.80792 2.97078 9.68778 3.02126 9.60001 3.11084L9.50834 3.17751L3.80001 7.18584C3.25652 7.56865 2.92834 8.18784 2.91667 8.85251V14.7942C2.91888 15.4064 3.16419 15.9926 3.59866 16.424C4.03312 16.8553 4.62113 17.0964 5.23334 17.0942H14.6333C15.2455 17.0964 15.8336 16.8553 16.268 16.424Z" fill="#959BA3"/>
<path d="M14.9917 9.17751L10.375 12.4025C10.2383 12.5392 10.0507 12.6125 9.85753 12.6046C9.66438 12.5967 9.48336 12.5083 9.35833 12.3608L4.875 9.17751C4.69491 9.02175 4.44197 8.98186 4.22267 9.07461C4.00338 9.16737 3.85585 9.37667 3.84219 9.61438C3.82852 9.85209 3.95111 10.0769 4.15834 10.1942L8.575 13.3442C8.93716 13.6813 9.41353 13.8689 9.90833 13.8692C10.3737 13.8574 10.8173 13.6698 11.15 13.3442L15.7083 10.1608C15.9704 9.96688 16.0393 9.60407 15.8667 9.32751C15.6647 9.04725 15.2754 8.98052 14.9917 9.17751Z" fill="#959BA3"/>
</g>
</g>
</svg>
