<svg width="20" height="20" viewBox="0 0 20 20" fill="none" xmlns="http://www.w3.org/2000/svg">
<g id="Interface essential/Filter">
<g id="Icon">
<path d="M8.14167 4.75847H3.14167C2.79649 4.75847 2.51667 5.03829 2.51667 5.38347C2.51667 5.72865 2.79649 6.00847 3.14167 6.00847H8.14167C8.48685 6.00847 8.76667 5.72865 8.76667 5.38347C8.76667 5.03829 8.48685 4.75847 8.14167 4.75847Z" fill="#404656"/>
<path fill-rule="evenodd" clip-rule="evenodd" d="M4.73333 10.9168H3.14167C2.79649 10.9168 2.51667 10.637 2.51667 10.2918C2.51667 9.94663 2.79649 9.6668 3.14167 9.6668H4.73333C5.03736 8.8155 5.90987 8.30646 6.80057 8.46073C7.69127 8.61501 8.34175 9.38784 8.34175 10.2918C8.34175 11.1958 7.69127 11.9686 6.80057 12.1229C5.90987 12.2771 5.03736 11.7681 4.73333 10.9168ZM6.475 10.9001C6.81098 10.9001 7.08333 10.6278 7.08333 10.2918C7.08333 9.95583 6.81098 9.68347 6.475 9.68347C6.31366 9.68347 6.15893 9.74756 6.04485 9.86165C5.93076 9.97573 5.86667 10.1305 5.86667 10.2918C5.86667 10.6278 6.13903 10.9001 6.475 10.9001Z" fill="#404656"/>
<path fill-rule="evenodd" clip-rule="evenodd" d="M12.9083 5.97514C12.6237 6.64754 11.9716 7.09093 11.2417 7.10847V7.05014C10.2753 7.05384 9.4674 6.31629 9.38327 5.3536C9.29915 4.39091 9.96688 3.52441 10.9192 3.36043C11.8716 3.19646 12.7907 3.78975 13.0333 4.72514C13.0693 4.72042 13.1057 4.72042 13.1417 4.72514H16.4333C16.7785 4.72514 17.0583 5.00496 17.0583 5.35014C17.0583 5.69532 16.7785 5.97514 16.4333 5.97514H13.1C13.0364 5.98307 12.972 5.98307 12.9083 5.97514ZM11.8531 5.18928C11.8383 4.86291 11.5684 4.60649 11.2417 4.60847V4.64181C11.0743 4.6437 10.9151 4.71448 10.8016 4.83748C10.688 4.96047 10.6302 5.12481 10.6417 5.29181C10.6819 5.61601 10.9711 5.85051 11.2967 5.82296C11.6222 5.79541 11.8678 5.51564 11.8531 5.18928Z" fill="#404656"/>
<path d="M8.14167 14.8418H3.14167C2.78728 14.8418 2.5 15.1291 2.5 15.4835C2.5 15.8379 2.78728 16.1251 3.14167 16.1251H8.14167C8.48684 16.1251 8.76667 15.8453 8.76667 15.5001C8.76667 15.155 8.48684 14.8751 8.14167 14.8751V14.8418Z" fill="#404656"/>
<path fill-rule="evenodd" clip-rule="evenodd" d="M13.25 14.8418H16.475V14.8751C16.8202 14.8751 17.1 15.155 17.1 15.5001C17.1 15.8453 16.8202 16.1251 16.475 16.1251H13.1417C12.7604 16.9355 11.8535 17.3564 10.9885 17.1245C10.1236 16.8925 9.54889 16.0743 9.62422 15.182C9.69955 14.2896 10.4032 13.5793 11.2949 13.4957C12.1865 13.412 13.01 13.979 13.25 14.8418ZM10.9071 15.5721C11.0039 15.7991 11.2282 15.9452 11.475 15.9418C11.8077 15.9372 12.075 15.6662 12.075 15.3335C12.075 15.0867 11.9258 14.8643 11.6975 14.7707C11.4692 14.677 11.2069 14.7306 11.0336 14.9063C10.8603 15.0821 10.8103 15.3451 10.9071 15.5721Z" fill="#404656"/>
<path d="M16.475 9.6668H9.80834C9.46316 9.6668 9.18334 9.94663 9.18334 10.2918C9.18334 10.637 9.46316 10.9168 9.80834 10.9168H16.475C16.8202 10.9168 17.1 10.637 17.1 10.2918C17.1 9.94663 16.8202 9.6668 16.475 9.6668Z" fill="#404656"/>
</g>
</g>
</svg>
