<svg width="36" height="36" viewBox="0 0 36 36" fill="none" xmlns="http://www.w3.org/2000/svg">
<path id="Vector" d="M12 10C5.33333 15.3333 4.66667 22.6667 10 32M24 26C30.6667 20.6667 31.3333 13.4769 26 4.14355M18 2C13.7565 2 9.68687 3.68571 6.68629 6.68629C3.68571 9.68687 2 13.7565 2 18C2 22.2435 3.68571 26.3131 6.68629 29.3137C9.68687 32.3143 13.7565 34 18 34C22.2435 34 26.3131 32.3143 29.3137 29.3137C32.3143 26.3131 34 22.2435 34 18C34 13.7565 32.3143 9.68687 29.3137 6.68629C26.3131 3.68571 22.2435 2 18 2ZM18 8C15.3478 8 12.8043 9.05357 10.9289 10.9289C9.05357 12.8043 8 15.3478 8 18C8 20.6522 9.05357 23.1957 10.9289 25.0711C12.8043 26.9464 15.3478 28 18 28C20.6522 28 23.1957 26.9464 25.0711 25.0711C26.9464 23.1957 28 20.6522 28 18C28 15.3478 26.9464 12.8043 25.0711 10.9289C23.1957 9.05357 20.6522 8 18 8Z" stroke="#6E6AF0" stroke-width="3" stroke-linejoin="round"/>
</svg>
