<svg width="20" height="20" viewBox="0 0 20 20" fill="none" xmlns="http://www.w3.org/2000/svg">
<g id="Interface essential/Move">
<path id="Icon" d="M16.7742 2.5H11.6065C11.2056 2.5 10.8806 2.82792 10.8806 3.23242C10.8806 3.63693 11.2056 3.96484 11.6065 3.96484H14.8871L3.95161 15V11.5527C3.95161 11.1482 3.62666 10.8203 3.22581 10.8203C2.82495 10.8203 2.5 11.1482 2.5 11.5527V16.7676C2.50521 17.1699 2.82713 17.4947 3.22581 17.5H8.39355C8.7944 17.5 9.11935 17.1721 9.11935 16.7676C9.11935 16.3631 8.7944 16.0352 8.39355 16.0352H4.97742L16.0484 4.86328V8.44727C16.0484 8.85177 16.3733 9.17969 16.7742 9.17969C17.175 9.17969 17.5 8.85177 17.5 8.44727V3.23242C17.4948 2.83012 17.1729 2.50526 16.7742 2.5Z" fill="#404656"/>
</g>
</svg>
