<svg width="20" height="20" viewBox="0 0 20 20" fill="none" xmlns="http://www.w3.org/2000/svg">
<g id="Interface essential/Retry-refresh">
<path id="Icon" d="M10.4269 3.35116L11.0602 2.71782C11.2897 2.47157 11.2829 2.08782 11.0449 1.84981C10.8069 1.6118 10.4231 1.60503 10.1769 1.83449L8.51019 3.50116C8.26648 3.74517 8.26648 4.14048 8.51019 4.38449L10.1769 6.05116C10.4209 6.29487 10.8162 6.29487 11.0602 6.05116C11.3039 5.80714 11.3039 5.41184 11.0602 5.16782L10.5102 4.61783C13.3163 4.96542 15.5032 7.21768 15.7681 10.0328C16.0329 12.848 14.3044 15.4686 11.6123 16.3334C8.92019 17.1982 5.98888 16.0746 4.56464 13.6319C3.14041 11.1892 3.60648 8.08465 5.68519 6.16782C5.88663 5.9283 5.87985 5.57671 5.66933 5.34513C5.4588 5.11355 5.10944 5.07339 4.85186 5.25116C2.31701 7.58599 1.76295 11.3767 3.5235 14.3394C5.28405 17.302 8.87841 18.6276 12.141 17.5173C15.4035 16.4071 17.4433 13.1643 17.0313 9.74269C16.6193 6.32111 13.868 3.6552 10.4352 3.35116H10.4269Z" fill="#404656"/>
</g>
</svg>
