<svg width="16" height="16" viewBox="0 0 16 16" fill="none" xmlns="http://www.w3.org/2000/svg">
<g id="Interface essential/Magnifier ">
<path id="Icon" fill-rule="evenodd" clip-rule="evenodd" d="M2.70784 5.11305C3.65864 2.82996 5.88641 1.34019 8.35956 1.33358C11.025 1.31955 13.3951 3.02687 14.226 5.55956C15.0568 8.09225 14.1587 10.8717 12.0029 12.4394C9.84715 14.007 6.92617 14.0047 4.77289 12.4336L2.85289 14.3536C2.65768 14.5486 2.34144 14.5486 2.14623 14.3536C1.95126 14.1584 1.95126 13.8421 2.14623 13.6469L4.00623 11.7869C2.26883 10.0268 1.75704 7.39614 2.70784 5.11305ZM3.59927 9.44621C4.39759 11.37 6.27672 12.6229 8.35956 12.6202V12.5936C11.1864 12.59 13.4813 10.3071 13.4996 7.48025C13.5023 5.39741 12.2493 3.51828 10.3255 2.71996C8.40174 1.92165 6.18645 2.36155 4.71365 3.83434C3.24086 5.30714 2.80096 7.52243 3.59927 9.44621Z" fill="#959BA3"/>
</g>
</svg>
