<svg width="25" height="24" viewBox="0 0 25 24" fill="none" xmlns="http://www.w3.org/2000/svg">
<g id="Interface essential/Chat">
<g id="Icon">
<path fill-rule="evenodd" clip-rule="evenodd" d="M6.94226 2H18.0623C20.5954 2.08694 22.5809 4.2066 22.5023 6.74V13.26C22.5399 14.4835 22.0883 15.6716 21.2475 16.5612C20.4067 17.4508 19.246 17.9686 18.0223 18H8.50226C7.84345 18.0136 7.21868 18.2953 6.77226 18.78L4.40226 21.31C4.20147 21.529 3.91933 21.6556 3.62226 21.66C3.31544 21.6522 3.02447 21.522 2.81412 21.2985C2.60377 21.075 2.49148 20.7767 2.50226 20.47V6.74C2.42363 4.2066 4.40913 2.08694 6.94226 2ZM18.0623 16.5C19.7672 16.4137 21.0815 14.9653 21.0023 13.26V6.74C21.0815 5.03472 19.7672 3.58627 18.0623 3.5H6.94225C5.23731 3.58627 3.92298 5.03472 4.00225 6.74V19.54L5.63225 17.76C6.37768 16.9671 7.41401 16.5121 8.50225 16.5H18.0623Z" fill="#404656"/>
<path d="M8.75225 8.75H13.7523C14.1665 8.75 14.5023 8.41421 14.5023 8C14.5023 7.58579 14.1665 7.25 13.7523 7.25H8.75225C8.33804 7.25 8.00225 7.58579 8.00225 8C8.00225 8.41421 8.33804 8.75 8.75225 8.75Z" fill="#404656"/>
<path d="M16.2523 11.25H8.75225C8.33804 11.25 8.00225 11.5858 8.00225 12C8.00225 12.4142 8.33804 12.75 8.75225 12.75H16.2523C16.6665 12.75 17.0023 12.4142 17.0023 12C17.0023 11.5858 16.6665 11.25 16.2523 11.25Z" fill="#404656"/>
</g>
</g>
</svg>
