<svg width="25" height="24" viewBox="0 0 25 24" fill="none" xmlns="http://www.w3.org/2000/svg">
<g id="Interface essential/Chat">
<path id="Icon" fill-rule="evenodd" clip-rule="evenodd" d="M18.0617 2H6.94174C4.42064 2.08698 2.43992 4.18816 2.50174 6.71V20.44C2.47593 20.9013 2.73859 21.3304 3.16118 21.5172C3.58377 21.7041 4.0779 21.6096 4.40174 21.28L6.77174 18.75C7.22329 18.2764 7.84739 18.0058 8.50175 18H18.0217C19.2508 17.9688 20.4163 17.4468 21.258 16.5507C22.0997 15.6545 22.5476 14.4586 22.5017 13.23V6.71C22.5636 4.18816 20.5828 2.08698 18.0617 2ZM8.75174 7.22H13.7517C14.166 7.22 14.5017 7.55579 14.5017 7.97C14.5017 8.38421 14.166 8.72 13.7517 8.72H8.75174C8.33753 8.72 8.00174 8.38421 8.00174 7.97C8.00174 7.55579 8.33753 7.22 8.75174 7.22ZM8.75174 12.72H16.2517C16.666 12.72 17.0017 12.3842 17.0017 11.97C17.0017 11.5558 16.666 11.22 16.2517 11.22H8.75174C8.33753 11.22 8.00174 11.5558 8.00174 11.97C8.00174 12.3842 8.33753 12.72 8.75174 12.72Z" fill="#6E6AF0"/>
</g>
</svg>
