<svg width="25" height="24" viewBox="0 0 25 24" fill="none" xmlns="http://www.w3.org/2000/svg">
<g id="Documents/Documents">
<g id="Icon">
<path d="M19.5 10.15H14.66C14.0102 10.1474 13.3881 9.88669 12.9305 9.42535C12.4729 8.96401 12.2173 8.33978 12.22 7.69V2.93C12.22 2.65386 11.9961 2.43 11.72 2.43H9.05C6.84086 2.43 5.05 4.22086 5.05 6.43V17.57C5.05 19.7791 6.84086 21.57 9.05 21.57H15.95C17.0109 21.57 18.0283 21.1486 18.7784 20.3984C19.5286 19.6483 19.95 18.6309 19.95 17.57V10.65C19.9468 10.394 19.7542 10.1801 19.5 10.15Z" fill="#6E6AF0"/>
<path d="M14.75 9.05H19.38C19.6268 9.07035 19.8577 8.92612 19.9477 8.69537C20.0377 8.46461 19.9654 8.20215 19.77 8.05L14.22 2.6C14.067 2.40217 13.8013 2.3298 13.5691 2.42269C13.3369 2.51558 13.1944 2.7512 13.22 3V7.57C13.2198 7.97134 13.3825 8.35556 13.671 8.6346C13.9595 8.91364 14.3489 9.06356 14.75 9.05Z" fill="#6E6AF0"/>
</g>
</g>
</svg>
