<svg width="25" height="24" viewBox="0 0 25 24" fill="none" xmlns="http://www.w3.org/2000/svg">
<g id="Documents/Documents">
<path id="Icon" fill-rule="evenodd" clip-rule="evenodd" d="M20.03 9.44001L13.03 2.44001C12.8827 2.31373 12.694 2.2461 12.5 2.25001H9.5C6.87665 2.25001 4.75 4.37666 4.75 7.00001V17C4.75 19.6234 6.87665 21.75 9.5 21.75H15.5C18.1234 21.75 20.25 19.6234 20.25 17V10C20.2534 9.79163 20.1743 9.59035 20.03 9.44001ZM13.25 4.79001L17.71 9.25001H14.5C13.8096 9.25001 13.25 8.69036 13.25 8.00001V4.79001ZM6.25 17C6.25549 18.7927 7.70735 20.2445 9.5 20.25H15.5C17.2926 20.2445 18.7445 18.7927 18.75 17V10.75H14.5C12.9812 10.75 11.75 9.51879 11.75 8.00001V3.75001H9.5C7.70735 3.7555 6.25549 5.20736 6.25 7.00001V17Z" fill="#404656"/>
</g>
</svg>
