<svg width="25" height="24" viewBox="0 0 25 24" fill="none" xmlns="http://www.w3.org/2000/svg">
<g id="Layout/grid-1">
<g id="Icon">
<path fill-rule="evenodd" clip-rule="evenodd" d="M4.37 12.5H7.87C8.46674 12.5 9.03903 12.7371 9.46099 13.159C9.88295 13.581 10.12 14.1533 10.12 14.75V18.25C10.12 18.8467 9.88295 19.419 9.46099 19.841C9.03903 20.2629 8.46674 20.5 7.87 20.5H4.37C3.12736 20.5 2.12 19.4926 2.12 18.25V14.75C2.12 13.5074 3.12736 12.5 4.37 12.5ZM7.87 19C8.28421 19 8.62 18.6642 8.62 18.25V14.75C8.62 14.3358 8.28421 14 7.87 14H4.37C3.95804 14.0054 3.62539 14.338 3.62 14.75V18.25C3.62539 18.662 3.95804 18.9946 4.37 19H7.87Z" fill="#404656"/>
<path d="M14.12 13.75C13.7058 13.75 13.37 14.0858 13.37 14.5C13.37 14.9142 13.7058 15.25 14.12 15.25H19.12C19.5342 15.25 19.87 14.9142 19.87 14.5C19.87 14.0858 19.5342 13.75 19.12 13.75H14.12Z" fill="#404656"/>
<path d="M22.12 17.75H14.12C13.7058 17.75 13.37 18.0858 13.37 18.5C13.37 18.9142 13.7058 19.25 14.12 19.25H22.12C22.5342 19.25 22.87 18.9142 22.87 18.5C22.87 18.0858 22.5342 17.75 22.12 17.75Z" fill="#404656"/>
<path fill-rule="evenodd" clip-rule="evenodd" d="M20.12 10.5H4.12C3.01543 10.5 2.12 9.60457 2.12 8.5V5.5C2.12 4.39543 3.01543 3.5 4.12 3.5H20.12C21.2246 3.5 22.12 4.39543 22.12 5.5V8.5C22.12 9.60457 21.2246 10.5 20.12 10.5ZM4.12 5C3.84386 5 3.62 5.22386 3.62 5.5V8.5C3.62 8.77614 3.84386 9 4.12 9H20.12C20.3961 9 20.62 8.77614 20.62 8.5V5.5C20.62 5.22386 20.3961 5 20.12 5H4.12Z" fill="#404656"/>
</g>
</g>
</svg>
