<svg width="25" height="24" viewBox="0 0 25 24" fill="none" xmlns="http://www.w3.org/2000/svg">
<g id="Layout/grid-8">
<g id="Icon">
<path fill-rule="evenodd" clip-rule="evenodd" d="M5.74998 3H8.83998C9.43845 2.99999 10.0123 3.23842 10.4345 3.66254C10.8568 4.08666 11.0926 4.66153 11.09 5.26V8.34C11.09 9.58264 10.0826 10.59 8.83998 10.59H5.74998C4.50734 10.59 3.49998 9.58264 3.49998 8.34V5.26C3.49732 4.66153 3.7332 4.08666 4.15544 3.66254C4.57769 3.23842 5.1515 2.99999 5.74998 3ZM8.83998 9.08C9.25194 9.07461 9.58459 8.74196 9.58998 8.33V5.26C9.58998 4.84579 9.25419 4.51 8.83998 4.51H5.74998C5.33576 4.51 4.99998 4.84579 4.99998 5.26V8.33C5.00536 8.74196 5.33802 9.07461 5.74998 9.08H8.83998Z" fill="#404656"/>
<path fill-rule="evenodd" clip-rule="evenodd" d="M16.16 3H19.25C19.8485 2.99999 20.4223 3.23842 20.8445 3.66254C21.2668 4.08666 21.5027 4.66153 21.5 5.26V8.34C21.5 9.58264 20.4926 10.59 19.25 10.59H16.16C14.9174 10.59 13.91 9.58264 13.91 8.34V5.25C13.91 4.00736 14.9174 3 16.16 3ZM19.25 9.08C19.662 9.07461 19.9946 8.74196 20 8.33V5.26C20 4.84579 19.6642 4.51 19.25 4.51H16.16C15.7458 4.51 15.41 4.84579 15.41 5.26V8.33C15.4154 8.74196 15.748 9.07461 16.16 9.08H19.25Z" fill="#404656"/>
<path fill-rule="evenodd" clip-rule="evenodd" d="M5.74998 13.41H8.83998C10.0826 13.41 11.09 14.4174 11.09 15.66V18.75C11.09 19.9926 10.0826 21 8.83998 21H5.74998C5.1515 21 4.57769 20.7616 4.15544 20.3375C3.7332 19.9133 3.49732 19.3385 3.49998 18.74V15.66C3.49998 14.4174 4.50734 13.41 5.74998 13.41ZM8.83998 19.49C9.25419 19.49 9.58998 19.1542 9.58998 18.74V15.66C9.58459 15.248 9.25194 14.9154 8.83998 14.91H5.74998C5.33802 14.9154 5.00536 15.248 4.99998 15.66V18.74C4.99998 19.1542 5.33576 19.49 5.74998 19.49H8.83998Z" fill="#404656"/>
<path fill-rule="evenodd" clip-rule="evenodd" d="M16.16 13.41H19.25C20.4926 13.41 21.5 14.4174 21.5 15.66V18.74C21.5026 19.3385 21.2668 19.9133 20.8445 20.3375C20.4223 20.7616 19.8485 21 19.25 21H16.16C15.5615 21 14.9877 20.7616 14.5654 20.3375C14.1432 19.9133 13.9073 19.3385 13.91 18.74V15.66C13.91 14.4174 14.9173 13.41 16.16 13.41ZM19.25 19.49C19.6642 19.49 20 19.1542 20 18.74V15.66C19.9946 15.248 19.6619 14.9154 19.25 14.91H16.16C15.748 14.9154 15.4154 15.248 15.41 15.66V18.74C15.41 19.1542 15.7458 19.49 16.16 19.49H19.25Z" fill="#404656"/>
</g>
</g>
</svg>
