<svg width="25" height="24" viewBox="0 0 25 24" fill="none" xmlns="http://www.w3.org/2000/svg">
<g id="Layout/grid-8">
<g id="Icon">
<path d="M3.5 5.26C3.5 4.01736 4.50736 3.01 5.75 3.01H8.84C10.0826 3.01 11.09 4.01736 11.09 5.26V8.35C11.09 9.59264 10.0826 10.6 8.84 10.6H5.75C4.50736 10.6 3.5 9.59264 3.5 8.35V5.26Z" fill="#6E6AF0"/>
<path d="M13.91 5.26C13.91 4.01736 14.9174 3.01 16.16 3.01H19.25C20.4926 3.01 21.5 4.01736 21.5 5.26V8.35C21.5 9.59264 20.4926 10.6 19.25 10.6H16.16C14.9174 10.6 13.91 9.59264 13.91 8.35V5.26Z" fill="#6E6AF0"/>
<path d="M3.5 15.66C3.5 14.4174 4.50736 13.41 5.75 13.41H8.84C10.0826 13.41 11.09 14.4174 11.09 15.66V18.75C11.09 19.9926 10.0826 21 8.84 21H5.75C4.50736 21 3.5 19.9926 3.5 18.75V15.66Z" fill="#6E6AF0"/>
<path d="M13.91 15.66C13.91 14.4174 14.9174 13.41 16.16 13.41H19.25C20.4926 13.41 21.5 14.4174 21.5 15.66V18.75C21.5 19.9926 20.4926 21 19.25 21H16.16C14.9174 21 13.91 19.9926 13.91 18.75V15.66Z" fill="#6E6AF0"/>
</g>
</g>
</svg>
