<svg width="25" height="24" viewBox="0 0 25 24" fill="none" xmlns="http://www.w3.org/2000/svg">
<g id="Interface essential/Moon">
<path id="Icon" fill-rule="evenodd" clip-rule="evenodd" d="M2.5 12.0802C2.5 6.5132 7.01297 2.00023 12.58 2.00023C13.3206 1.99651 14.0591 2.08043 14.78 2.25023C11.9268 3.06715 10.0595 5.79959 10.335 8.75458C10.6104 11.7096 12.9507 14.0498 15.9057 14.3253C18.8606 14.6007 21.5931 12.7334 22.41 9.88023C22.5798 10.6011 22.6637 11.3396 22.66 12.0802C22.66 17.6473 18.147 22.1602 12.58 22.1602C7.01297 22.1602 2.5 17.6473 2.5 12.0802ZM11.043 13.6164C8.42799 11.0039 8.04836 6.89792 10.14 3.85023C6.20314 5.01949 3.64688 8.81452 4.04276 12.9022C4.43865 16.9899 7.67565 20.2239 11.7637 20.616C15.8518 21.008 19.6444 18.4482 20.81 14.5102C17.7643 16.6047 13.6579 16.229 11.043 13.6164Z" fill="#404656"/>
</g>
</svg>
