<svg width="25" height="24" viewBox="0 0 25 24" fill="none" xmlns="http://www.w3.org/2000/svg">
<g id="Comercial/shopping-basket-handy">
<path id="Icon" fill-rule="evenodd" clip-rule="evenodd" d="M14.1 9.28001H19.62C21.02 9.28001 22.06 10.85 21.72 12.51L20.5 19.19C20.3909 20.2959 19.5159 21.1709 18.41 21.28H6.63C5.50849 21.189 4.61222 20.3096 4.5 19.19L3.2 12.45C2.9 10.79 3.93 9.22001 5.33 9.22001H11.33L6.96 4.00001C6.78109 3.65199 6.873 3.22605 7.17951 2.98279C7.48602 2.73953 7.92171 2.74674 8.22 3.00001L12.79 8.38001L16.79 3.03001C16.9686 2.796 17.2585 2.67506 17.5505 2.71276C17.8425 2.75046 18.0922 2.94105 18.2055 3.21276C18.3189 3.48447 18.2786 3.796 18.1 4.03001L14.1 9.28001ZM9.56 17.44C9.68467 17.4425 9.80812 17.4151 9.92 17.36C10.3205 17.1588 10.4853 16.6734 10.29 16.27L8.65 13C8.54538 12.7009 8.27781 12.4889 7.96274 12.4554C7.64767 12.4219 7.34149 12.5728 7.17628 12.8432C7.01107 13.1136 7.01641 13.4549 7.19 13.72L8.82 17C8.96537 17.2731 9.2506 17.4427 9.56 17.44ZM12.83 17.09C12.3826 17.09 12.02 16.7274 12.02 16.28V13.28C12.02 12.831 12.381 12.4655 12.83 12.46C13.279 12.46 13.6445 12.821 13.65 13.27V16.27C13.6527 16.4883 13.5672 16.6985 13.4128 16.8528C13.2584 17.0072 13.0483 17.0927 12.83 17.09ZM16.83 17L18.5 13.72C18.5918 13.5225 18.6012 13.2965 18.5261 13.092C18.4511 12.8875 18.2978 12.7213 18.1 12.63C17.9066 12.5334 17.6826 12.5182 17.4778 12.5877C17.2731 12.6572 17.1047 12.8056 17.01 13L15.37 16.27C15.2338 16.522 15.2427 16.8277 15.3934 17.0713C15.5441 17.315 15.8137 17.4594 16.1 17.45C16.41 17.4541 16.6944 17.2788 16.83 17Z" fill="#6E6AF0"/>
</g>
</svg>
