<svg width="25" height="24" viewBox="0 0 25 24" fill="none" xmlns="http://www.w3.org/2000/svg">
<g id="Comercial/shopping-basket-handy">
<g id="Icon">
<path fill-rule="evenodd" clip-rule="evenodd" d="M14.4519 8.5758H19.9819C21.3719 8.5758 22.4119 10.1558 22.0719 11.8058L20.8519 18.4958C20.742 19.5996 19.8662 20.4713 18.7619 20.5758H6.98186C5.86196 20.4895 4.96473 19.6133 4.85186 18.4958L3.55186 11.7858C3.25186 10.1358 4.29186 8.5558 5.68186 8.5558H11.6819L7.31186 3.3458C7.13294 2.99779 7.22486 2.57185 7.53137 2.32859C7.83788 2.08533 8.27356 2.09253 8.57186 2.3458L13.1119 7.6958L17.1119 2.3458C17.2415 2.16045 17.4427 2.03774 17.6668 2.00735C17.8909 1.97696 18.1176 2.04166 18.2919 2.1858C18.649 2.46184 18.7201 2.97274 18.4519 3.3358L14.4519 8.5758ZM19.2819 18.2058L20.5019 11.5158C20.5963 11.108 20.5047 10.6794 20.2519 10.3458C20.1877 10.2558 20.0907 10.1947 19.9819 10.1758H5.72186C5.613 10.1947 5.51599 10.2558 5.45186 10.3458C5.19899 10.6794 5.1074 11.108 5.20186 11.5158L6.42186 18.2058C6.50186 18.6758 6.78186 18.9458 6.94186 18.9458H18.7619C18.9219 18.9458 19.2019 18.6758 19.2819 18.2058Z" fill="#404656"/>
<path d="M13.1519 11.7658C12.699 11.7658 12.3319 12.1329 12.3319 12.5858V15.5858C12.3373 16.0348 12.7029 16.3958 13.1519 16.3958C13.6047 16.3958 13.9719 16.0287 13.9719 15.5758V12.5758C13.9664 12.1268 13.6009 11.7658 13.1519 11.7658Z" fill="#404656"/>
<path d="M9.00186 12.3458C8.88996 12.0546 8.62254 11.8522 8.31193 11.8234C8.00132 11.7947 7.70131 11.9447 7.53792 12.2104C7.37453 12.4762 7.37605 12.8116 7.54186 13.0758L9.18186 16.3458C9.31745 16.6246 9.60189 16.7999 9.91186 16.7958C10.0366 16.7991 10.1602 16.7716 10.2719 16.7158C10.4669 16.6191 10.6155 16.4489 10.6849 16.2425C10.7543 16.0362 10.7388 15.8107 10.6419 15.6158L9.00186 12.3458Z" fill="#404656"/>
<path d="M18.4619 11.9258C18.2674 11.826 18.0409 11.809 17.8338 11.8787C17.6267 11.9484 17.4565 12.0988 17.3619 12.2958L15.7219 15.5658C15.6249 15.7607 15.6094 15.9862 15.6788 16.1925C15.7482 16.3989 15.8968 16.5691 16.0919 16.6658C16.2037 16.7209 16.3272 16.7483 16.4519 16.7458C16.7618 16.7499 17.0463 16.5746 17.1819 16.2958L18.8519 13.0258C18.9475 12.8284 18.96 12.601 18.8867 12.3943C18.8135 12.1876 18.6604 12.0189 18.4619 11.9258Z" fill="#404656"/>
</g>
</g>
</svg>
