<svg width="25" height="24" viewBox="0 0 25 24" fill="none" xmlns="http://www.w3.org/2000/svg">
<g id="Interface essential/Trash">
<g id="Icon">
<path d="M19.29 7C18.8537 7 18.5 7.35369 18.5 7.79V16.63C18.5 18.4912 16.9912 20 15.13 20H9.45C7.5888 20 6.08 18.4912 6.08 16.63V7.79C6.08 7.35369 5.72631 7 5.29 7C4.8537 7 4.5 7.35369 4.5 7.79V16.63C4.52742 19.3719 6.75799 21.5801 9.5 21.58H15.18C17.9025 21.5529 20.1029 19.3525 20.13 16.63V7.79C20.1304 7.57152 20.0404 7.36262 19.8812 7.21294C19.7221 7.06326 19.508 6.98617 19.29 7Z" fill="#404656"/>
<path fill-rule="evenodd" clip-rule="evenodd" d="M19.29 5.58H5.29C4.8537 5.58 4.5 5.22631 4.5 4.79C4.5 4.35369 4.8537 4 5.29 4H7.94L9.12 2.72C9.57107 2.26141 10.1868 2.00218 10.83 2H13.75C14.3839 1.99999 14.9918 2.25179 15.44 2.7L16.64 4H19.29C19.7263 4 20.08 4.35369 20.08 4.79C20.08 5.22631 19.7263 5.58 19.29 5.58ZM13.75 3.58H10.83C10.6301 3.58007 10.4374 3.65499 10.29 3.79L10.1 3.99H14.48L14.29 3.79C14.1436 3.65326 13.9503 3.57807 13.75 3.58Z" fill="#404656"/>
<path d="M8.54 8.79V11.79C8.54 12.2042 8.87579 12.54 9.29 12.54C9.70421 12.54 10.04 12.2042 10.04 11.79V8.79C10.04 8.37579 9.70421 8.04 9.29 8.04C8.87579 8.04 8.54 8.37579 8.54 8.79Z" fill="#404656"/>
<path d="M11.54 8.79V16.79C11.54 17.2042 11.8758 17.54 12.29 17.54C12.7042 17.54 13.04 17.2042 13.04 16.79V8.79C13.04 8.37579 12.7042 8.04 12.29 8.04C11.8758 8.04 11.54 8.37579 11.54 8.79Z" fill="#404656"/>
<path d="M14.54 8.79V11.79C14.54 12.2042 14.8758 12.54 15.29 12.54C15.7042 12.54 16.04 12.2042 16.04 11.79V8.79C16.04 8.37579 15.7042 8.04 15.29 8.04C14.8758 8.04 14.54 8.37579 14.54 8.79Z" fill="#404656"/>
</g>
</g>
</svg>
